<svg width="16" height="16" viewBox="0 0 16 16" fill="none" xmlns="http://www.w3.org/2000/svg">
    <path d="M4 1.33325L2 3.99992V13.3333C2 13.6869 2.14048 14.026 2.39052 14.2761C2.64057 14.5261 2.97971 14.6666 3.33333 14.6666H12.6667C13.0203 14.6666 13.3594 14.5261 13.6095 14.2761C13.8595 14.026 14 13.6869 14 13.3333V3.99992L12 1.33325H4Z" stroke="white" stroke-width="2" stroke-linecap="round" stroke-linejoin="round"/>
    <path d="M2 4H14" stroke="white" stroke-width="2" stroke-linecap="round" stroke-linejoin="round"/>
    <path d="M10.6666 6.66675C10.6666 7.37399 10.3856 8.05227 9.88554 8.55237C9.38544 9.05246 8.70716 9.33341 7.99992 9.33341C7.29267 9.33341 6.6144 9.05246 6.1143 8.55237C5.6142 8.05227 5.33325 7.37399 5.33325 6.66675" stroke="white" stroke-width="2" stroke-linecap="round" stroke-linejoin="round"/>
</svg>
