<svg width="208" height="207" viewBox="0 0 208 207" fill="none" xmlns="http://www.w3.org/2000/svg">
    <path d="M8.28015 187.15C2.28015 175.81 1.73015 170.25 1.15015 115.98C-0.089847 -1.30954 -1.63985 0.380463 106.8 0.570463C184.43 0.710463 195.17 3.79046 203.11 28.2005C206.97 40.0405 208.67 145.91 205.37 169.07C202.51 189.16 195.42 198.13 178.32 203.27C169.3 205.98 169.3 205.98 108.05 206.23C50.8202 206.46 46.1002 206.35 36.0502 204.51C21.1902 201.79 13.4702 196.96 8.28015 187.15ZM29.1002 134.36C30.4402 166.87 34.8002 174.89 53.0502 178.38C56.2102 178.99 67.1302 179.48 95.8002 179.48V153.48C95.8002 123.92 95.9402 124.33 88.1802 131.48C82.8202 136.42 81.8902 136.44 76.8402 131.63C71.8802 126.91 71.7702 124.62 76.3002 119.61C81.9502 113.36 82.3802 113.48 54.7802 113.48C25.4302 113.48 28.1502 111.27 29.1002 134.36ZM112.82 154.2C112.82 167.28 113.05 178.32 113.32 178.73C113.58 179.14 123.36 179.36 135.05 179.22C156.15 178.96 156.35 178.94 163.3 175.97C176.31 170.41 178.56 164.26 179.3 113.98L153.05 113.71C124.04 113.42 124.31 113.35 130.3 119.48C134.83 124.12 134.78 126.89 130.1 131.69C125.6 136.29 123.91 136.4 119.33 132.37C112.98 126.8 112.8 127.41 112.82 154.2ZM31.2302 51.2705C28.8502 62.3505 28.0802 93.3005 30.1402 95.0605C31.4602 96.1905 36.2202 96.4805 53.5502 96.4705C65.5102 96.4605 76.3102 96.1805 77.5502 95.8505C80.6102 95.0305 80.3902 93.8805 76.3002 89.3505C71.8902 84.4705 71.9202 82.9705 76.5002 78.2705C81.3302 73.3305 83.8902 73.3905 89.5302 78.5905C95.8002 84.3705 95.8702 84.1205 95.3002 29.9805L82.3002 29.6905C46.5402 28.8905 35.0002 33.7705 31.2302 51.2705ZM130.3 89.6105C126.25 94.0905 126.07 94.8205 128.8 95.7805C129.9 96.1605 141.41 96.3705 154.37 96.2305C176.64 95.9905 178 95.8705 179.04 94.0105C181 90.5105 178.57 51.0105 176.04 45.2905C170.67 33.1405 162.45 30.2105 113.3 29.9805L113.03 54.4105C112.73 81.8705 112.77 82.0105 119.12 77.0705C124.28 73.0505 125.56 73.1405 130.55 77.8205C134.77 81.7805 134.71 84.7305 130.3 89.6105Z" fill="#B49CFA"/>
</svg>
